{
    "asset": {
        "generator": "COLLADA2GLTF",
        "version": "2.0"
    },
    "scenes": [
        {
            "nodes": [
                6,
                0
            ]
        }
    ],
    "scene": 0,
    "nodes": [
        {
            "mesh": 0,
            "children": [
                5,
                4,
                3,
                2,
                1
            ],
            "name": "TEST_AR"
        },
        {
            "mesh": 1
        },
        {
            "mesh": 2
        },
        {
            "mesh": 3
        },
        {
            "mesh": 4
        },
        {
            "mesh": 5
        },
        {
            "children": [
                7
            ],
            "matrix": [
                1.0,
                0.0,
                0.0,
                0.0,
                0.0,
                0.0,
                -1.0,
                0.0,
                0.0,
                1.0,
                0.0,
                0.0,
                0.0,
                0.0,
                0.0,
                1.0
            ],
            "name": "Z_UP"
        },
        {
            "mesh": 6,
            "children": [
                10,
                9,
                8
            ],
            "name": "SketchUp"
        },
        {
            "matrix": [
                -0.6823061108589172,
                0.7310665845870972,
                -2.775557892435137e-17,
                0.0,
                0.1480945944786072,
                0.13821710646152497,
                0.979267120361328,
                0.0,
                0.715909481048584,
                0.6681599020957947,
                -0.20257340371608738,
                0.0,
                62.63261795043945,
                57.11144638061524,
                -4.478131771087647,
                1.0
            ],
            "camera": 0,
            "name": "skp_camera_Last_Saved_SketchUp_View"
        },
        {
            "mesh": 7
        },
        {
            "mesh": 8
        }
    ],
    "cameras": [
        {
            "perspective": {
                "yfov": 0.6108646988868713,
                "zfar": 25.399999618530278,
                "znear": 0.02539999969303608
            },
            "type": "perspective",
            "name": "skp_camera_Last_Saved_SketchUp_View"
        }
    ],
    "meshes": [
        {
            "primitives": [
                {
                    "attributes": {
                        "NORMAL": 1,
                        "POSITION": 2
                    },
                    "indices": 0,
                    "mode": 4,
                    "material": 0
                }
            ],
            "name": "ID5"
        },
        {
            "primitives": [
                {
                    "attributes": {
                        "NORMAL": 4,
                        "POSITION": 5
                    },
                    "indices": 3,
                    "mode": 4,
                    "material": 1
                }
            ],
            "name": "ID37"
        },
        {
            "primitives": [
                {
                    "attributes": {
                        "NORMAL": 7,
                        "POSITION": 8
                    },
                    "indices": 6,
                    "mode": 4,
                    "material": 2
                }
            ],
            "name": "ID31"
        },
        {
            "primitives": [
                {
                    "attributes": {
                        "NORMAL": 10,
                        "POSITION": 11
                    },
                    "indices": 9,
                    "mode": 4,
                    "material": 3
                }
            ],
            "name": "ID25"
        },
        {
            "primitives": [
                {
                    "attributes": {
                        "NORMAL": 13,
                        "POSITION": 14
                    },
                    "indices": 12,
                    "mode": 4,
                    "material": 4
                }
            ],
            "name": "ID19"
        },
        {
            "primitives": [
                {
                    "attributes": {
                        "NORMAL": 16,
                        "POSITION": 17
                    },
                    "indices": 15,
                    "mode": 4,
                    "material": 5
                }
            ],
            "name": "ID13"
        },
        {
            "primitives": [
                {
                    "attributes": {
                        "NORMAL": 19,
                        "POSITION": 20
                    },
                    "indices": 18,
                    "mode": 4,
                    "material": 6
                }
            ],
            "name": "ID43"
        },
        {
            "primitives": [
                {
                    "attributes": {
                        "NORMAL": 22,
                        "POSITION": 23
                    },
                    "indices": 21,
                    "mode": 4,
                    "material": 7
                }
            ],
            "name": "ID57"
        },
        {
            "primitives": [
                {
                    "attributes": {
                        "NORMAL": 25,
                        "POSITION": 26
                    },
                    "indices": 24,
                    "mode": 4,
                    "material": 8
                },
                {
                    "attributes": {
                        "NORMAL": 28,
                        "POSITION": 29
                    },
                    "indices": 27,
                    "mode": 4,
                    "material": 9
                }
            ],
            "name": "ID51"
        }
    ],
    "accessors": [
        {
            "bufferView": 0,
            "byteOffset": 0,
            "componentType": 5123,
            "count": 36,
            "max": [
                15
            ],
            "min": [
                0
            ],
            "type": "SCALAR"
        },
        {
            "bufferView": 1,
            "byteOffset": 0,
            "componentType": 5126,
            "count": 16,
            "max": [
                0.0,
                0.0,
                1.0
            ],
            "min": [
                0.0,
                0.0,
                -1.0
            ],
            "type": "VEC3"
        },
        {
            "bufferView": 1,
            "byteOffset": 192,
            "componentType": 5126,
            "count": 16,
            "max": [
                3.057471513748169,
                3.8722856044769289,
                0.020000001415610318
            ],
            "min": [
                -0.002554277423769236,
                0.06896551698446274,
                0.020000001415610318
            ],
            "type": "VEC3"
        },
        {
            "bufferView": 0,
            "byteOffset": 72,
            "componentType": 5123,
            "count": 210,
            "max": [
                69
            ],
            "min": [
                0
            ],
            "type": "SCALAR"
        },
        {
            "bufferView": 1,
            "byteOffset": 384,
            "componentType": 5126,
            "count": 70,
            "max": [
                0.0,
                0.0,
                1.0
            ],
            "min": [
                0.0,
                0.0,
                -1.0
            ],
            "type": "VEC3"
        },
        {
            "bufferView": 1,
            "byteOffset": 1224,
            "componentType": 5126,
            "count": 70,
            "max": [
                20.061302185058599,
                3.8722856044769289,
                0.020000001415610318
            ],
            "min": [
                17.11621856689453,
                0.06896551698446274,
                0.020000001415610318
            ],
            "type": "VEC3"
        },
        {
            "bufferView": 0,
            "byteOffset": 492,
            "componentType": 5123,
            "count": 66,
            "max": [
                21
            ],
            "min": [
                0
            ],
            "type": "SCALAR"
        },
        {
            "bufferView": 1,
            "byteOffset": 2064,
            "componentType": 5126,
            "count": 22,
            "max": [
                0.0,
                0.0,
                1.0
            ],
            "min": [
                0.0,
                0.0,
                -1.0
            ],
            "type": "VEC3"
        },
        {
            "bufferView": 1,
            "byteOffset": 2328,
            "componentType": 5126,
            "count": 22,
            "max": [
                16.756067276000978,
                3.8722856044769289,
                0.020000001415610318
            ],
            "min": [
                13.568326950073244,
                0.06896551698446274,
                0.020000001415610318
            ],
            "type": "VEC3"
        },
        {
            "bufferView": 0,
            "byteOffset": 624,
            "componentType": 5123,
            "count": 36,
            "max": [
                15
            ],
            "min": [
                0
            ],
            "type": "SCALAR"
        },
        {
            "bufferView": 1,
            "byteOffset": 2592,
            "componentType": 5126,
            "count": 16,
            "max": [
                0.0,
                0.0,
                1.0
            ],
            "min": [
                0.0,
                0.0,
                -1.0
            ],
            "type": "VEC3"
        },
        {
            "bufferView": 1,
            "byteOffset": 2784,
            "componentType": 5126,
            "count": 16,
            "max": [
                11.961685180664065,
                3.8722856044769289,
                0.020000001415610318
            ],
            "min": [
                8.901659965515137,
                0.06896551698446274,
                0.020000001415610318
            ],
            "type": "VEC3"
        },
        {
            "bufferView": 0,
            "byteOffset": 696,
            "componentType": 5123,
            "count": 390,
            "max": [
                133
            ],
            "min": [
                0
            ],
            "type": "SCALAR"
        },
        {
            "bufferView": 1,
            "byteOffset": 2976,
            "componentType": 5126,
            "count": 134,
            "max": [
                0.0,
                0.0,
                1.0
            ],
            "min": [
                0.0,
                0.0,
                -1.0
            ],
            "type": "VEC3"
        },
        {
            "bufferView": 1,
            "byteOffset": 4584,
            "componentType": 5126,
            "count": 134,
            "max": [
                8.773947715759278,
                3.941251516342163,
                0.020000001415610318
            ],
            "min": [
                6.186461925506592,
                0.0,
                0.020000001415610318
            ],
            "type": "VEC3"
        },
        {
            "bufferView": 0,
            "byteOffset": 1476,
            "componentType": 5123,
            "count": 60,
            "max": [
                23
            ],
            "min": [
                0
            ],
            "type": "SCALAR"
        },
        {
            "bufferView": 1,
            "byteOffset": 6192,
            "componentType": 5126,
            "count": 24,
            "max": [
                0.0,
                0.0,
                1.0
            ],
            "min": [
                0.0,
                0.0,
                -1.0
            ],
            "type": "VEC3"
        },
        {
            "bufferView": 1,
            "byteOffset": 6480,
            "componentType": 5126,
            "count": 24,
            "max": [
                5.8186469078063969,
                3.8722856044769289,
                0.020000001415610318
            ],
            "min": [
                3.44061279296875,
                0.06896551698446274,
                0.020000001415610318
            ],
            "type": "VEC3"
        },
        {
            "bufferView": 0,
            "byteOffset": 1596,
            "componentType": 5123,
            "count": 132,
            "max": [
                53
            ],
            "min": [
                0
            ],
            "type": "SCALAR"
        },
        {
            "bufferView": 1,
            "byteOffset": 6768,
            "componentType": 5126,
            "count": 54,
            "max": [
                1.0,
                -0.0,
                1.0
            ],
            "min": [
                -1.0,
                -1.0,
                -1.0
            ],
            "type": "VEC3"
        },
        {
            "bufferView": 1,
            "byteOffset": 7416,
            "componentType": 5126,
            "count": 54,
            "max": [
                20.91499900817871,
                12.331090927124024,
                19.850000381469728
            ],
            "min": [
                0.0,
                -8.688910484313965,
                0.0
            ],
            "type": "VEC3"
        },
        {
            "bufferView": 0,
            "byteOffset": 1860,
            "componentType": 5123,
            "count": 354,
            "max": [
                119
            ],
            "min": [
                0
            ],
            "type": "SCALAR"
        },
        {
            "bufferView": 1,
            "byteOffset": 8064,
            "componentType": 5126,
            "count": 120,
            "max": [
                1.0,
                1.0,
                1.0
            ],
            "min": [
                -1.0,
                0.0,
                -1.0
            ],
            "type": "VEC3"
        },
        {
            "bufferView": 1,
            "byteOffset": 9504,
            "componentType": 5126,
            "count": 120,
            "max": [
                19.892822265625,
                18.581092834472658,
                18.19629287719727
            ],
            "min": [
                14.432823181152344,
                -8.688910484313965,
                12.736291885375977
            ],
            "type": "VEC3"
        },
        {
            "bufferView": 0,
            "byteOffset": 2568,
            "componentType": 5123,
            "count": 84,
            "max": [
                27
            ],
            "min": [
                0
            ],
            "type": "SCALAR"
        },
        {
            "bufferView": 1,
            "byteOffset": 10944,
            "componentType": 5126,
            "count": 28,
            "max": [
                0.0,
                -1.0,
                -0.0
            ],
            "min": [
                0.0,
                -1.0,
                -0.0
            ],
            "type": "VEC3"
        },
        {
            "bufferView": 1,
            "byteOffset": 11280,
            "componentType": 5126,
            "count": 28,
            "max": [
                20.91499900817871,
                12.331090927124024,
                19.850000381469728
            ],
            "min": [
                0.0,
                12.331090927124024,
                0.0
            ],
            "type": "VEC3"
        },
        {
            "bufferView": 0,
            "byteOffset": 2736,
            "componentType": 5123,
            "count": 90,
            "max": [
                31
            ],
            "min": [
                0
            ],
            "type": "SCALAR"
        },
        {
            "bufferView": 1,
            "byteOffset": 11616,
            "componentType": 5126,
            "count": 32,
            "max": [
                1.0,
                1.0,
                -0.0
            ],
            "min": [
                -0.0,
                -0.0,
                -0.0
            ],
            "type": "VEC3"
        },
        {
            "bufferView": 1,
            "byteOffset": 12000,
            "componentType": 5126,
            "count": 32,
            "max": [
                20.91499900817871,
                12.331090927124024,
                19.850000381469728
            ],
            "min": [
                0.0,
                -0.173909991979599,
                0.0
            ],
            "type": "VEC3"
        }
    ],
    "materials": [
        {
            "pbrMetallicRoughness": {
                "baseColorFactor": [
                    1.0,
                    0.19607840478420256,
                    0.19607840478420256,
                    1.0
                ],
                "metallicFactor": 0.0
            },
            "name": "ID7"
        },
        {
            "pbrMetallicRoughness": {
                "baseColorFactor": [
                    1.0,
                    0.19607840478420256,
                    0.19607840478420256,
                    1.0
                ],
                "metallicFactor": 0.0
            },
            "name": "ID7"
        },
        {
            "pbrMetallicRoughness": {
                "baseColorFactor": [
                    1.0,
                    0.19607840478420256,
                    0.19607840478420256,
                    1.0
                ],
                "metallicFactor": 0.0
            },
            "name": "ID7"
        },
        {
            "pbrMetallicRoughness": {
                "baseColorFactor": [
                    1.0,
                    0.19607840478420256,
                    0.19607840478420256,
                    1.0
                ],
                "metallicFactor": 0.0
            },
            "name": "ID7"
        },
        {
            "pbrMetallicRoughness": {
                "baseColorFactor": [
                    1.0,
                    0.19607840478420256,
                    0.19607840478420256,
                    1.0
                ],
                "metallicFactor": 0.0
            },
            "name": "ID7"
        },
        {
            "pbrMetallicRoughness": {
                "baseColorFactor": [
                    1.0,
                    0.19607840478420256,
                    0.19607840478420256,
                    1.0
                ],
                "metallicFactor": 0.0
            },
            "name": "ID7"
        },
        {
            "pbrMetallicRoughness": {
                "baseColorFactor": [
                    1.0,
                    1.0,
                    1.0,
                    1.0
                ],
                "metallicFactor": 0.0
            },
            "name": "ID44"
        },
        {
            "pbrMetallicRoughness": {
                "baseColorFactor": [
                    1.0,
                    1.0,
                    1.0,
                    1.0
                ],
                "metallicFactor": 0.0
            },
            "name": "ID44"
        },
        {
            "pbrMetallicRoughness": {
                "baseColorFactor": [
                    1.0,
                    1.0,
                    1.0,
                    1.0
                ],
                "metallicFactor": 0.0
            },
            "name": "ID44"
        },
        {
            "pbrMetallicRoughness": {
                "baseColorFactor": [
                    1.0,
                    0.19607840478420256,
                    0.19607840478420256,
                    1.0
                ],
                "metallicFactor": 0.0
            },
            "name": "ID7"
        }
    ],
    "bufferViews": [
        {
            "buffer": 0,
            "byteOffset": 12384,
            "byteLength": 2916,
            "target": 34963
        },
        {
            "buffer": 0,
            "byteOffset": 0,
            "byteLength": 12384,
            "byteStride": 12,
            "target": 34962
        }
    ],
    "buffers": [
        {
            "byteLength": 15300,
            "uri": "data:application/octet-stream;base64,"
        }
    ]
}
