{"accessors":{"accessor_16":{"bufferView":"bufferView_1","byteOffset":0,"byteStride":0,"componentType":5123,"count":36,"max":[7],"min":[0],"type":"SCALAR"},"accessor_168":{"bufferView":"bufferView_1","byteOffset":72,"byteStride":0,"componentType":5123,"count":84,"max":[15],"min":[0],"type":"SCALAR"},"accessor_171":{"bufferView":"bufferView_1","byteOffset":240,"byteStride":0,"componentType":5123,"count":90,"max":[44],"min":[0],"type":"SCALAR"},"accessor_173":{"bufferView":"bufferView_0","byteOffset":0,"byteStride":0,"componentType":5126,"count":60,"max":[20.914995193481445,19.849998474121094,0.173909991979599],"min":[0,0,-12.331090927124023],"type":"VEC3"},"accessor_175":{"bufferView":"bufferView_0","byteOffset":720,"byteStride":0,"componentType":5126,"count":60,"max":[1,0,1],"min":[0,0,-1],"type":"VEC3"},"accessor_18":{"bufferView":"bufferView_0","byteOffset":1440,"byteStride":0,"componentType":5126,"count":16,"max":[3.057474374771118,3.872281074523926,0.02000001072883606],"min":[-0.0025542746298015118,0.06896556913852692,0.02000001072883606],"type":"VEC3"},"accessor_20":{"bufferView":"bufferView_0","byteOffset":1632,"byteStride":0,"componentType":5126,"count":16,"max":[0,0,1],"min":[0,0,-1],"type":"VEC3"},"accessor_78":{"bufferView":"bufferView_0","byteOffset":1824,"byteStride":0,"componentType":5126,"count":16,"max":[11.961698532104492,3.872281074523926,0.02000001072883606],"min":[8.90165901184082,0.06896556913852692,0.02000001072883606],"type":"VEC3"},"accessor":{"bufferView":"bufferView_1","byteOffset":420,"byteStride":0,"componentType":5123,"count":486,"type":"SCALAR","min":[0],"max":[173]},"accessor_0":{"bufferView":"bufferView_0","byteOffset":2016,"byteStride":0,"componentType":5126,"count":174,"type":"VEC3","min":[-1,-1,-1],"max":[1,1,1]},"accessor_1":{"bufferView":"bufferView_0","byteOffset":4104,"byteStride":0,"componentType":5126,"count":174,"type":"VEC3","min":[0,0,-18.581092834472656],"max":[20.914995193481445,19.849998474121094,8.688908576965332]},"accessor_2":{"bufferView":"bufferView_1","byteOffset":1392,"byteStride":0,"componentType":5123,"count":726,"type":"SCALAR","min":[0],"max":[249]},"accessor_3":{"bufferView":"bufferView_0","byteOffset":6192,"byteStride":0,"componentType":5126,"count":250,"type":"VEC3","min":[0,0,-1],"max":[0,0,1]},"accessor_4":{"bufferView":"bufferView_0","byteOffset":9192,"byteStride":0,"componentType":5126,"count":250,"type":"VEC3","min":[-0.11940574645996094,9.692462921142578,8.66890811920166],"max":[16.50128936767578,13.633705139160156,8.66890811920166]}},"animations":{},"asset":{"generator":"collada2gltf@ec3ff192cc7dd54ad5f27c08bf14e37805754a10","premultipliedAlpha":true,"profile":{"api":"WebGL","version":"1.0.2"},"version":"1.0.1"},"bufferViews":{"bufferView_0":{"buffer":"input","byteLength":12192,"byteOffset":0,"target":34962},"bufferView_1":{"buffer":"input","byteLength":2844,"byteOffset":12192,"target":34963}},"buffers":{"input":{"type":"arraybuffer","byteLength":15036,"uri":"data:application/octet-stream;base64,"}},"cameras":{"ID1":{"name":"skp_camera_Last_Saved_SketchUp_View","perspective":{"aspectRatio":0,"yfov":0.6108652381980153,"zfar":25.39999969303608,"znear":0.02539999969303608},"type":"perspective"}},"materials":{"ID44":{"name":"material","technique":"technique0","values":{"diffuse":[1,1,1,1]}},"ID7":{"name":"Color_A04","technique":"technique0","values":{"diffuse":[1,0.19607800245285034,0.19607800245285034,1]}}},"meshes":{"rootNode_mesh_0":{"name":"rootNode_mesh","primitives":[{"attributes":{"NORMAL":"accessor_0","POSITION":"accessor_1"},"material":"ID44","mode":4,"indices":"accessor"},{"attributes":{"NORMAL":"accessor_3","POSITION":"accessor_4"},"material":"ID7","mode":4,"indices":"accessor_2"}]},"mesh-split":{"primitives":[{"attributes":{"NORMAL":"accessor_20","POSITION":"accessor_78"},"indices":"accessor_16","material":"ID7","mode":4}]},"mesh-split_0":{"primitives":[{"attributes":{"NORMAL":"accessor_20","POSITION":"accessor_18"},"indices":"accessor_16","material":"ID7","mode":4}]},"mesh-split_1":{"primitives":[{"attributes":{"NORMAL":"accessor_175","POSITION":"accessor_173"},"indices":"accessor_168","material":"ID44","mode":4}]},"mesh-split_2":{"primitives":[{"attributes":{"NORMAL":"accessor_175","POSITION":"accessor_173"},"indices":"accessor_171","material":"ID7","mode":4}]}},"nodes":{"ID4":{"children":[],"meshes":["mesh-split","mesh-split_0"],"name":"TEST_AR","matrix":[-1,0,0,0,0,1,0,0,0,0,-1,0,19.941896438598633,9.692462921142578,8.688908576965332,1]},"node_1":{"camera":"ID1","children":[],"matrix":[-0.6823059916496277,-2.7755602085408515e-17,-0.7310670018196106,0,0.1480949968099594,0.9792670011520386,-0.1382170021533966,0,0.7159090042114258,-0.2025730013847351,-0.6681599617004395,0,62.63258361816406,-4.478121757507324,-57.11138916015625,1],"name":"skp_camera_Last_Saved_SketchUp_View"},"rootNode":{"children":["node_1","ID4"],"meshes":["rootNode_mesh_0","mesh-split_1","mesh-split_2"],"matrix":[1,0,0,0,0,1,0,0,0,0,1,0,0,0,0,1]}},"programs":{"program_0":{"attributes":["a_normal","a_position"],"fragmentShader":"input0FS","vertexShader":"input0VS"}},"scene":"defaultScene","scenes":{"defaultScene":{"nodes":["rootNode"]}},"shaders":{"input0FS":{"type":35632,"uri":"data:text/plain;base64,"},"input0VS":{"type":35633,"uri":"data:text/plain;base64,"}},"skins":{},"techniques":{"technique0":{"attributes":{"a_normal":"normal","a_position":"position"},"parameters":{"diffuse":{"semantic":"_3DTILESDIFFUSE","type":35666},"modelViewMatrix":{"semantic":"MODELVIEW","type":35676},"normal":{"semantic":"NORMAL","type":35665},"normalMatrix":{"semantic":"MODELVIEWINVERSETRANSPOSE","type":35675},"position":{"semantic":"POSITION","type":35665},"projectionMatrix":{"semantic":"PROJECTION","type":35676}},"program":"program_0","states":{"enable":[2929,2884]},"uniforms":{"u_diffuse":"diffuse","u_modelViewMatrix":"modelViewMatrix","u_normalMatrix":"normalMatrix","u_projectionMatrix":"projectionMatrix"}}},"images":{},"samplers":{},"textures":{},"extensionsUsed":[]}
