{
    "asset": {
        "generator": "COLLADA2GLTF",
        "version": "2.0"
    },
    "scenes": [
        {
            "nodes": [
                0
            ]
        }
    ],
    "scene": 0,
    "nodes": [
        {
            "children": [
                6,
                5,
                4,
                3,
                2,
                1
            ],
            "matrix": [
                1.0,
                0.0,
                0.0,
                0.0,
                0.0,
                0.0,
                -1.0,
                0.0,
                0.0,
                1.0,
                0.0,
                0.0,
                0.0,
                0.0,
                0.0,
                1.0
            ],
            "name": "Z_UP"
        },
        {
            "mesh": 0,
            "matrix": [
                0.02114480920135975,
                0.0,
                0.0,
                0.0,
                0.0,
                -3.444929896900817e-9,
                0.02114480920135975,
                0.0,
                0.0,
                -0.02114480920135975,
                -3.444929896900817e-9,
                0.0,
                0.0,
                0.0,
                0.0,
                1.0
            ],
            "name": "Circle01"
        },
        {
            "mesh": 1,
            "matrix": [
                0.02114480920135975,
                0.0,
                0.0,
                0.0,
                0.0,
                -3.444929896900817e-9,
                0.02114480920135975,
                0.0,
                0.0,
                -0.02114480920135975,
                -3.444929896900817e-9,
                0.0,
                0.0,
                0.0,
                0.0,
                1.0
            ],
            "name": "ChamferBox02"
        },
        {
            "mesh": 2,
            "matrix": [
                0.02114480920135975,
                0.0,
                0.0,
                0.0,
                0.0,
                -3.444929896900817e-9,
                0.02114480920135975,
                0.0,
                0.0,
                -0.02114480920135975,
                -3.444929896900817e-9,
                0.0,
                0.0,
                0.0,
                0.0,
                1.0
            ],
            "name": "Rectangle01"
        },
        {
            "mesh": 3,
            "matrix": [
                0.02114480920135975,
                0.0,
                0.0,
                0.0,
                0.0,
                -3.444929896900817e-9,
                0.02114480920135975,
                0.0,
                0.0,
                -0.02114480920135975,
                -3.444929896900817e-9,
                0.0,
                0.0,
                0.0,
                0.0,
                1.0
            ],
            "name": "ChamferBox03"
        },
        {
            "mesh": 4,
            "matrix": [
                5.0,
                0.0,
                0.0,
                0.0,
                0.0,
                5.0,
                0.0,
                0.0,
                0.0,
                0.0,
                5.0,
                0.0,
                0.0005662440089508891,
                -0.0035342569462955,
                4.7634358406066898,
                1.0
            ],
            "name": "Plane"
        },
        {
            "matrix": [
                0.6859207153320313,
                0.7276763319969177,
                0.0,
                0.0,
                -0.32401350140571597,
                0.30542081594467165,
                0.8953956365585327,
                0.0,
                0.6515582203865051,
                -0.6141704320907593,
                0.44527140259742739,
                0.0,
                7.4811320304870609,
                -6.507639884948731,
                5.34366512298584,
                1.0
            ],
            "camera": 0,
            "name": "Camera"
        }
    ],
    "cameras": [
        {
            "perspective": {
                "yfov": 0.4823747575283051,
                "zfar": 100.0,
                "znear": 0.10000000149011612
            },
            "type": "perspective",
            "name": "Camera"
        }
    ],
    "meshes": [
        {
            "primitives": [
                {
                    "attributes": {
                        "NORMAL": 1,
                        "POSITION": 2
                    },
                    "indices": 0,
                    "mode": 4,
                    "material": 0
                }
            ],
            "name": "Circle01"
        },
        {
            "primitives": [
                {
                    "attributes": {
                        "NORMAL": 4,
                        "POSITION": 5
                    },
                    "indices": 3,
                    "mode": 4,
                    "material": 1
                }
            ],
            "name": "ChamferBox02"
        },
        {
            "primitives": [
                {
                    "attributes": {
                        "NORMAL": 7,
                        "POSITION": 8
                    },
                    "indices": 6,
                    "mode": 4,
                    "material": 2
                }
            ],
            "name": "Rectangle01"
        },
        {
            "primitives": [
                {
                    "attributes": {
                        "NORMAL": 10,
                        "POSITION": 11
                    },
                    "indices": 9,
                    "mode": 4,
                    "material": 3
                }
            ],
            "name": "ChamferBox03"
        },
        {
            "primitives": [
                {
                    "attributes": {
                        "NORMAL": 13,
                        "POSITION": 14
                    },
                    "indices": 12,
                    "mode": 4,
                    "material": 4
                }
            ],
            "name": "Plane"
        }
    ],
    "accessors": [
        {
            "bufferView": 0,
            "byteOffset": 0,
            "componentType": 5123,
            "count": 1008,
            "max": [
                671
            ],
            "min": [
                0
            ],
            "type": "SCALAR"
        },
        {
            "bufferView": 1,
            "byteOffset": 0,
            "componentType": 5126,
            "count": 672,
            "max": [
                0.8432427048683167,
                0.9341089129447936,
                0.8990455269813538
            ],
            "min": [
                -0.8956505060195923,
                -0.9417437314987184,
                -0.927666187286377
            ],
            "type": "VEC3"
        },
        {
            "bufferView": 1,
            "byteOffset": 8064,
            "componentType": 5126,
            "count": 672,
            "max": [
                25.19664001464844,
                -3.574820995330811,
                47.08395004272461
            ],
            "min": [
                3.29260802268982,
                -13.165589332580569,
                44.517147064208987
            ],
            "type": "VEC3"
        },
        {
            "bufferView": 0,
            "byteOffset": 2016,
            "componentType": 5123,
            "count": 2286,
            "max": [
                471
            ],
            "min": [
                0
            ],
            "type": "SCALAR"
        },
        {
            "bufferView": 1,
            "byteOffset": 16128,
            "componentType": 5126,
            "count": 472,
            "max": [
                0.9969195127487184,
                0.996919333934784,
                0.995817005634308
            ],
            "min": [
                -0.9969195127487184,
                -0.996919333934784,
                -0.995817005634308
            ],
            "type": "VEC3"
        },
        {
            "bufferView": 1,
            "byteOffset": 21792,
            "componentType": 5126,
            "count": 472,
            "max": [
                23.36050033569336,
                23.36050033569336,
                45.468780517578128
            ],
            "min": [
                -23.36050033569336,
                -23.36050033569336,
                0.0
            ],
            "type": "VEC3"
        },
        {
            "bufferView": 0,
            "byteOffset": 6588,
            "componentType": 5123,
            "count": 336,
            "max": [
                169
            ],
            "min": [
                0
            ],
            "type": "SCALAR"
        },
        {
            "bufferView": 1,
            "byteOffset": 27456,
            "componentType": 5126,
            "count": 170,
            "max": [
                0.7693299651145935,
                0.9964206218719482,
                0.9975938200950624
            ],
            "min": [
                -0.7692071795463562,
                -0.9964188933372498,
                -0.9975965023040772
            ],
            "type": "VEC3"
        },
        {
            "bufferView": 1,
            "byteOffset": 29496,
            "componentType": 5126,
            "count": 170,
            "max": [
                31.95673942565918,
                -11.312219619750977,
                46.46207046508789
            ],
            "min": [
                23.43177032470703,
                -15.959409713745118,
                40.58308029174805
            ],
            "type": "VEC3"
        },
        {
            "bufferView": 0,
            "byteOffset": 7260,
            "componentType": 5123,
            "count": 6816,
            "max": [
                1143
            ],
            "min": [
                0
            ],
            "type": "SCALAR"
        },
        {
            "bufferView": 1,
            "byteOffset": 31536,
            "componentType": 5126,
            "count": 1144,
            "max": [
                1.0,
                1.0,
                0.9997863173484802
            ],
            "min": [
                -1.0,
                -1.0,
                -0.9997819066047669
            ],
            "type": "VEC3"
        },
        {
            "bufferView": 1,
            "byteOffset": 45264,
            "componentType": 5126,
            "count": 1144,
            "max": [
                23.609729766845704,
                23.609729766845704,
                51.48178863525391
            ],
            "min": [
                -23.609729766845704,
                -23.609729766845704,
                -0.24922899901866914
            ],
            "type": "VEC3"
        },
        {
            "bufferView": 0,
            "byteOffset": 20892,
            "componentType": 5123,
            "count": 294,
            "max": [
                63
            ],
            "min": [
                0
            ],
            "type": "SCALAR"
        },
        {
            "bufferView": 1,
            "byteOffset": 58992,
            "componentType": 5126,
            "count": 64,
            "max": [
                0.0,
                0.0,
                1.0
            ],
            "min": [
                0.0,
                0.0,
                1.0
            ],
            "type": "VEC3"
        },
        {
            "bufferView": 1,
            "byteOffset": 59760,
            "componentType": 5126,
            "count": 64,
            "max": [
                1.0,
                1.0,
                0.0
            ],
            "min": [
                -1.0,
                -1.0,
                0.0
            ],
            "type": "VEC3"
        }
    ],
    "materials": [
        {
            "pbrMetallicRoughness": {
                "baseColorFactor": [
                    0.800000011920929,
                    0.0,
                    0.0,
                    1.0
                ],
                "metallicFactor": 0.0
            },
            "emissiveFactor": [
                0.0,
                0.0,
                0.0
            ],
            "name": "_6_-_Default-effect"
        },
        {
            "pbrMetallicRoughness": {
                "baseColorFactor": [
                    1.0,
                    1.0,
                    1.0,
                    1.0
                ],
                "metallicFactor": 0.0
            },
            "emissiveFactor": [
                0.0,
                0.0,
                0.0
            ],
            "name": "_1_-_Default-effect"
        },
        {
            "pbrMetallicRoughness": {
                "baseColorFactor": [
                    1.0,
                    1.0,
                    1.0,
                    1.0
                ],
                "metallicFactor": 0.0
            },
            "emissiveFactor": [
                0.0,
                0.0,
                0.0
            ],
            "name": "_7_-_Default-effect"
        },
        {
            "pbrMetallicRoughness": {
                "baseColorFactor": [
                    0.800000011920929,
                    0.0,
                    0.0,
                    1.0
                ],
                "metallicFactor": 0.0
            },
            "emissiveFactor": [
                0.0,
                0.0,
                0.0
            ],
            "name": "_2_-_Default-effect"
        },
        {
            "pbrMetallicRoughness": {
                "baseColorFactor": [
                    0.6399999856948853,
                    0.6399999856948853,
                    0.6399999856948853,
                    1.0
                ],
                "metallicFactor": 0.0
            },
            "emissiveFactor": [
                0.0,
                0.0,
                0.0
            ],
            "name": "Material_001-effect"
        }
    ],
    "bufferViews": [
        {
            "buffer": 0,
            "byteOffset": 60528,
            "byteLength": 21480,
            "target": 34963
        },
        {
            "buffer": 0,
            "byteOffset": 0,
            "byteLength": 60528,
            "byteStride": 12,
            "target": 34962
        }
    ],
    "buffers": [
        {
            "byteLength": 82008,
            "uri": "data:application/octet-stream;base64,"
        }
    ]
}
