{
    "accessors" : [
        {
            "bufferView" : 0,
            "componentType" : 5123,
            "count" : 6816,
            "max" : [
                1579
            ],
            "min" : [
                0
            ],
            "type" : "SCALAR"
        },
        {
            "bufferView" : 1,
            "componentType" : 5126,
            "count" : 1580,
            "max" : [
                23.609729766845703,
                51.48179244995117,
                23.609729766845703
            ],
            "min" : [
                -23.609729766845703,
                -0.24922899901866913,
                -23.609729766845703
            ],
            "type" : "VEC3"
        },
        {
            "bufferView" : 2,
            "componentType" : 5126,
            "count" : 1580,
            "max" : [
                1.0,
                0.99981689453125,
                1.0
            ],
            "min" : [
                -1.0,
                -0.999786376953125,
                -1.0
            ],
            "type" : "VEC3"
        },
        {
            "bufferView" : 3,
            "componentType" : 5126,
            "count" : 1580,
            "max" : [
                1.0,
                0.9920554757118225,
                1.0,
                1.0
            ],
            "min" : [
                -1.0,
                -0.9920554757118225,
                -0.9999518394470215,
                -1.0
            ],
            "type" : "VEC4"
        },
        {
            "bufferView" : 4,
            "componentType" : 5126,
            "count" : 1580,
            "max" : [
                4.678537845611572,
                3.5540881156921387
            ],
            "min" : [
                -16.99490737915039,
                -1.9068400859832764
            ],
            "type" : "VEC2"
        },
        {
            "bufferView" : 5,
            "componentType" : 5123,
            "count" : 336,
            "max" : [
                227
            ],
            "min" : [
                0
            ],
            "type" : "SCALAR"
        },
        {
            "bufferView" : 6,
            "componentType" : 5126,
            "count" : 228,
            "max" : [
                31.956741333007812,
                46.462066650390625,
                15.959410667419434
            ],
            "min" : [
                23.431764602661133,
                40.58308410644531,
                11.312217712402344
            ],
            "type" : "VEC3"
        },
        {
            "bufferView" : 7,
            "componentType" : 5126,
            "count" : 228,
            "max" : [
                0.7692800760269165,
                0.9975890517234802,
                0.9963988065719604
            ],
            "min" : [
                -0.7691885232925415,
                -0.9975890517234802,
                -0.9963988065719604
            ],
            "type" : "VEC3"
        },
        {
            "bufferView" : 8,
            "componentType" : 5126,
            "count" : 228,
            "max" : [
                0.9944229125976562,
                0.998222827911377,
                0.9759286642074585,
                1.0
            ],
            "min" : [
                -0.994420051574707,
                -0.9383561611175537,
                -0.9900991916656494,
                1.0
            ],
            "type" : "VEC4"
        },
        {
            "bufferView" : 9,
            "componentType" : 5126,
            "count" : 228,
            "max" : [
                1.0,
                1.0
            ],
            "min" : [
                0.0,
                0.0
            ],
            "type" : "VEC2"
        },
        {
            "bufferView" : 10,
            "componentType" : 5123,
            "count" : 2286,
            "max" : [
                471
            ],
            "min" : [
                0
            ],
            "type" : "SCALAR"
        },
        {
            "bufferView" : 11,
            "componentType" : 5126,
            "count" : 472,
            "max" : [
                23.36050033569336,
                45.468780517578125,
                23.36050033569336
            ],
            "min" : [
                -23.36050033569336,
                0.0,
                -23.36050033569336
            ],
            "type" : "VEC3"
        },
        {
            "bufferView" : 12,
            "componentType" : 5126,
            "count" : 472,
            "max" : [
                0.9968870878219604,
                0.9957884550094604,
                0.9968870878219604
            ],
            "min" : [
                -0.9968870878219604,
                -0.9957884550094604,
                -0.9968870878219604
            ],
            "type" : "VEC3"
        },
        {
            "bufferView" : 13,
            "componentType" : 5126,
            "count" : 472,
            "max" : [
                0.9996377229690552,
                0.9968849420547485,
                0.9969412684440613,
                1.0
            ],
            "min" : [
                -0.9969602227210999,
                -0.9968849420547485,
                -0.9969412684440613,
                1.0
            ],
            "type" : "VEC4"
        },
        {
            "bufferView" : 14,
            "componentType" : 5126,
            "count" : 472,
            "max" : [
                1.0,
                1.0
            ],
            "min" : [
                0.0,
                0.0
            ],
            "type" : "VEC2"
        },
        {
            "bufferView" : 15,
            "componentType" : 5123,
            "count" : 1008,
            "max" : [
                671
            ],
            "min" : [
                0
            ],
            "type" : "SCALAR"
        },
        {
            "bufferView" : 16,
            "componentType" : 5126,
            "count" : 672,
            "max" : [
                25.19663429260254,
                47.08395004272461,
                13.165594100952148
            ],
            "min" : [
                3.2926080226898193,
                44.517147064208984,
                3.5748209953308105
            ],
            "type" : "VEC3"
        },
        {
            "bufferView" : 17,
            "componentType" : 5126,
            "count" : 672,
            "max" : [
                0.9102450609207153,
                0.8990142345428467,
                0.9623706936836243
            ],
            "min" : [
                -0.9315469861030579,
                -0.9277321696281433,
                -0.9341410398483276
            ],
            "type" : "VEC3"
        },
        {
            "bufferView" : 18,
            "componentType" : 5126,
            "count" : 672,
            "max" : [
                0.9916843175888062,
                0.9649829268455505,
                0.9759451746940613,
                1.0
            ],
            "min" : [
                -0.9961876273155212,
                -0.9840936660766602,
                -0.9717047810554504,
                1.0
            ],
            "type" : "VEC4"
        },
        {
            "bufferView" : 19,
            "componentType" : 5126,
            "count" : 672,
            "max" : [
                1.0,
                1.0
            ],
            "min" : [
                0.0,
                0.0
            ],
            "type" : "VEC2"
        },
        {
            "bufferView" : 20,
            "componentType" : 5123,
            "count" : 294,
            "max" : [
                95
            ],
            "min" : [
                0
            ],
            "type" : "SCALAR"
        },
        {
            "bufferView" : 21,
            "componentType" : 5126,
            "count" : 96,
            "max" : [
                1.0,
                0.0,
                1.0
            ],
            "min" : [
                -1.0,
                0.0,
                -1.0
            ],
            "type" : "VEC3"
        },
        {
            "bufferView" : 22,
            "componentType" : 5126,
            "count" : 96,
            "max" : [
                0.0,
                1.0,
                -0.0
            ],
            "min" : [
                0.0,
                0.9999999403953552,
                -0.0
            ],
            "type" : "VEC3"
        }
    ],
    "asset" : {
        "generator" : "Khronos Blender glTF 2.0 exporter",
        "version" : "2.0"
    },
    "bufferViews" : [
        {
            "buffer" : 0,
            "byteLength" : 13632,
            "byteOffset" : 0,
            "target" : 34963
        },
        {
            "buffer" : 0,
            "byteLength" : 18960,
            "byteOffset" : 13632,
            "target" : 34962
        },
        {
            "buffer" : 0,
            "byteLength" : 18960,
            "byteOffset" : 32592,
            "target" : 34962
        },
        {
            "buffer" : 0,
            "byteLength" : 25280,
            "byteOffset" : 51552,
            "target" : 34962
        },
        {
            "buffer" : 0,
            "byteLength" : 12640,
            "byteOffset" : 76832,
            "target" : 34962
        },
        {
            "buffer" : 0,
            "byteLength" : 672,
            "byteOffset" : 89472,
            "target" : 34963
        },
        {
            "buffer" : 0,
            "byteLength" : 2736,
            "byteOffset" : 90144,
            "target" : 34962
        },
        {
            "buffer" : 0,
            "byteLength" : 2736,
            "byteOffset" : 92880,
            "target" : 34962
        },
        {
            "buffer" : 0,
            "byteLength" : 3648,
            "byteOffset" : 95616,
            "target" : 34962
        },
        {
            "buffer" : 0,
            "byteLength" : 1824,
            "byteOffset" : 99264,
            "target" : 34962
        },
        {
            "buffer" : 0,
            "byteLength" : 4572,
            "byteOffset" : 101088,
            "target" : 34963
        },
        {
            "buffer" : 0,
            "byteLength" : 5664,
            "byteOffset" : 105660,
            "target" : 34962
        },
        {
            "buffer" : 0,
            "byteLength" : 5664,
            "byteOffset" : 111324,
            "target" : 34962
        },
        {
            "buffer" : 0,
            "byteLength" : 7552,
            "byteOffset" : 116988,
            "target" : 34962
        },
        {
            "buffer" : 0,
            "byteLength" : 3776,
            "byteOffset" : 124540,
            "target" : 34962
        },
        {
            "buffer" : 0,
            "byteLength" : 2016,
            "byteOffset" : 128316,
            "target" : 34963
        },
        {
            "buffer" : 0,
            "byteLength" : 8064,
            "byteOffset" : 130332,
            "target" : 34962
        },
        {
            "buffer" : 0,
            "byteLength" : 8064,
            "byteOffset" : 138396,
            "target" : 34962
        },
        {
            "buffer" : 0,
            "byteLength" : 10752,
            "byteOffset" : 146460,
            "target" : 34962
        },
        {
            "buffer" : 0,
            "byteLength" : 5376,
            "byteOffset" : 157212,
            "target" : 34962
        },
        {
            "buffer" : 0,
            "byteLength" : 588,
            "byteOffset" : 162588,
            "target" : 34963
        },
        {
            "buffer" : 0,
            "byteLength" : 1152,
            "byteOffset" : 163176,
            "target" : 34962
        },
        {
            "buffer" : 0,
            "byteLength" : 1152,
            "byteOffset" : 164328,
            "target" : 34962
        }
    ],
    "buffers" : [
        {
            "byteLength" : 165480,
            "uri" : "data:application/octet-stream;base64,"
        }
    ],
    "materials" : [
        {
            "alphaMode" : "BLEND",
            "name" : "01_-_Default",
            "pbrMetallicRoughness" : {
                "metallicFactor" : 0.0
            }
        },
        {
            "alphaMode" : "BLEND",
            "name" : "02_-_Default",
            "pbrMetallicRoughness" : {
                "baseColorFactor" : [
                    0.800000011920929,
                    0.0,
                    0.0,
                    1.0
                ],
                "metallicFactor" : 0.0
            }
        },
        {
            "alphaMode" : "BLEND",
            "name" : "06_-_Default",
            "pbrMetallicRoughness" : {
                "baseColorFactor" : [
                    0.800000011920929,
                    0.0,
                    0.0,
                    1.0
                ],
                "metallicFactor" : 0.0
            }
        },
        {
            "alphaMode" : "BLEND",
            "name" : "07_-_Default",
            "pbrMetallicRoughness" : {
                "metallicFactor" : 0.0
            }
        },
        {
            "name" : "Material.001",
            "pbrMetallicRoughness" : {
                "baseColorFactor" : [
                    0.6400000190734865,
                    0.6400000190734865,
                    0.6400000190734865,
                    1.0
                ],
                "metallicFactor" : 0.0
            }
        }
    ],
    "meshes" : [
        {
            "name" : "ChamferBox03",
            "primitives" : [
                {
                    "attributes" : {
                        "NORMAL" : 2,
                        "POSITION" : 1,
                        "TANGENT" : 3,
                        "TEXCOORD_0" : 4
                    },
                    "indices" : 0,
                    "material" : 1
                }
            ]
        },
        {
            "name" : "Rectangle01",
            "primitives" : [
                {
                    "attributes" : {
                        "NORMAL" : 7,
                        "POSITION" : 6,
                        "TANGENT" : 8,
                        "TEXCOORD_0" : 9
                    },
                    "indices" : 5,
                    "material" : 3
                }
            ]
        },
        {
            "name" : "ChamferBox02",
            "primitives" : [
                {
                    "attributes" : {
                        "NORMAL" : 12,
                        "POSITION" : 11,
                        "TANGENT" : 13,
                        "TEXCOORD_0" : 14
                    },
                    "indices" : 10,
                    "material" : 0
                }
            ]
        },
        {
            "name" : "Circle01",
            "primitives" : [
                {
                    "attributes" : {
                        "NORMAL" : 17,
                        "POSITION" : 16,
                        "TANGENT" : 18,
                        "TEXCOORD_0" : 19
                    },
                    "indices" : 15,
                    "material" : 2
                }
            ]
        },
        {
            "name" : "Plane",
            "primitives" : [
                {
                    "attributes" : {
                        "NORMAL" : 22,
                        "POSITION" : 21
                    },
                    "indices" : 20,
                    "material" : 4
                }
            ]
        }
    ],
    "nodes" : [
        {
            "name" : "Camera",
            "rotation" : [
                0.483536034822464,
                0.33687159419059753,
                -0.20870360732078552,
                0.7804827094078064
            ],
            "translation" : [
                7.481131553649902,
                5.34366512298584,
                6.5076398849487305
            ]
        },
        {
            "mesh" : 2,
            "name" : "ChamferBox02",
            "rotation" : [
                0.7071068286895752,
                0.0,
                -0.0,
                0.7071067094802856
            ],
            "scale" : [
                0.0211448073387146,
                0.0211448073387146,
                0.0211448073387146
            ]
        },
        {
            "mesh" : 0,
            "name" : "ChamferBox03",
            "rotation" : [
                0.7071068286895752,
                0.0,
                -0.0,
                0.7071067094802856
            ],
            "scale" : [
                0.0211448073387146,
                0.0211448073387146,
                0.0211448073387146
            ]
        },
        {
            "mesh" : 3,
            "name" : "Circle01",
            "rotation" : [
                0.7071068286895752,
                0.0,
                -0.0,
                0.7071067094802856
            ],
            "scale" : [
                0.0211448073387146,
                0.0211448073387146,
                0.0211448073387146
            ]
        },
        {
            "mesh" : 4,
            "name" : "Plane",
            "scale" : [
                5.0,
                5.0,
                5.0
            ],
            "translation" : [
                0.0005662441253662109,
                4.7634358406066895,
                0.003534257411956787
            ]
        },
        {
            "mesh" : 1,
            "name" : "Rectangle01",
            "rotation" : [
                0.7071068286895752,
                0.0,
                -0.0,
                0.7071067094802856
            ],
            "scale" : [
                0.0211448073387146,
                0.0211448073387146,
                0.0211448073387146
            ]
        }
    ],
    "scene" : 0,
    "scenes" : [
        {
            "name" : "Scene",
            "nodes" : [
                3,
                1,
                5,
                2,
                4,
                0
            ]
        }
    ]
}
