{"accessors":{"accessor_114":{"bufferView":"bufferView_1","byteOffset":0,"byteStride":0,"componentType":5123,"count":114,"max":[56],"min":[0],"type":"SCALAR"},"accessor_116":{"bufferView":"bufferView_0","byteOffset":0,"byteStride":0,"componentType":5126,"count":114,"max":[0.0014065499417483807,0.3621506094932556,0.013920831494033337],"min":[0.001154060009866953,-0.05456148460507393,-0.011396290734410286],"type":"VEC3"},"accessor_118":{"bufferView":"bufferView_0","byteOffset":1368,"byteStride":0,"componentType":5126,"count":114,"max":[-0.9999502897262573,0.00004009158874396235,5.468848152112571e-10],"min":[-1,0,-0.00997238140553236],"type":"VEC3"},"accessor_26":{"bufferView":"bufferView_1","byteOffset":228,"byteStride":0,"componentType":5123,"count":54,"max":[26],"min":[0],"type":"SCALAR"},"accessor_28":{"bufferView":"bufferView_0","byteOffset":2736,"byteStride":0,"componentType":5126,"count":54,"max":[0.019915301352739334,0.40814417600631714,0.41373395919799805],"min":[0.019915100187063217,-0.40816280245780945,-0.40257301926612854],"type":"VEC3"},"accessor_30":{"bufferView":"bufferView_0","byteOffset":3384,"byteStride":0,"componentType":5126,"count":54,"max":[1,1.9561099406928406e-7,0],"min":[1,0,-3.6435487509102233e-16],"type":"VEC3"},"accessor":{"bufferView":"bufferView_1","byteOffset":336,"byteStride":0,"componentType":5123,"count":660,"type":"SCALAR","min":[0],"max":[659]},"accessor_0":{"bufferView":"bufferView_0","byteOffset":4032,"byteStride":0,"componentType":5126,"count":660,"type":"VEC3","min":[-1,-0.956455409526825,-0.956455409526825],"max":[0.7440869808197021,0.956455409526825,0.956455409526825]},"accessor_1":{"bufferView":"bufferView_0","byteOffset":11952,"byteStride":0,"componentType":5126,"count":660,"type":"VEC3","min":[-0.0602388009428978,-0.44932880997657776,-0.4482710361480713],"max":[0.04244460165500641,0.44930917024612427,0.4503679573535919]},"accessor_2":{"bufferView":"bufferView_1","byteOffset":1656,"byteStride":0,"componentType":5123,"count":72,"type":"SCALAR","min":[0],"max":[71]},"accessor_3":{"bufferView":"bufferView_0","byteOffset":19872,"byteStride":0,"componentType":5126,"count":72,"type":"VEC3","min":[-1,-1,-0.9998651742935181],"max":[1,1,0.9998651742935181]},"accessor_4":{"bufferView":"bufferView_0","byteOffset":20736,"byteStride":0,"componentType":5126,"count":72,"type":"VEC3","min":[-0.006933270022273064,-0.02405340038239956,-0.011997000314295292],"max":[-0.0031672699842602015,0.33962199091911316,0.011997000314295292]}},"animations":{},"asset":{"generator":"collada2gltf@ec3ff192cc7dd54ad5f27c08bf14e37805754a10","premultipliedAlpha":true,"profile":{"api":"WebGL","version":"1.0.2"},"version":"1.0.1"},"bufferViews":{"bufferView_0":{"buffer":"input","byteLength":21600,"byteOffset":0,"target":34962},"bufferView_1":{"buffer":"input","byteLength":1800,"byteOffset":21600,"target":34963}},"buffers":{"input":{"type":"arraybuffer","byteLength":23400,"uri":"data:application/octet-stream;base64,"}},"materials":{"Sec_Zeiger-effect":{"name":"Sec_Zeiger","technique":"technique0","values":{"ambient":[0,0,0,1],"diffuse":[0.800000011920929,0.01355930045247078,0,1],"emission":[0,0,0,1],"shininess":50,"specular":[0.5,0.5,0.5,1]}},"Uhr_2-effect":{"name":"Uhr_2","technique":"technique0","values":{"ambient":[0,0,0,1],"diffuse":[0.6399999856948853,0.6399999856948853,0.6399999856948853,1],"emission":[0,0,0,1],"shininess":50,"specular":[0.5,0.5,0.5,1]}},"Uhr_2_001-effect":{"name":"Uhr_2_001","technique":"technique2","values":{"ambient":[0,0,0,1],"diffuse":[0.6399999856948853,0.6399999856948853,0.6399999856948853,1],"emission":[0,0,0,1],"shininess":50,"specular":[0.5,0.5,0.5,1],"transparency":0.40535399317741394}},"min_Zeiger-effect":{"name":"min_Zeiger","technique":"technique0","values":{"ambient":[0,0,0,1],"diffuse":[0,0,0,1],"emission":[0,0,0,1],"shininess":50,"specular":[0.5,0.5,0.5,1]}}},"meshes":{"rootNode_mesh_0":{"name":"rootNode_mesh","primitives":[{"attributes":{"NORMAL":"accessor_3","POSITION":"accessor_4"},"material":"min_Zeiger-effect","mode":4,"indices":"accessor_2"}]},"mesh-split":{"primitives":[{"attributes":{"NORMAL":"accessor_30","POSITION":"accessor_28"},"indices":"accessor_26","material":"Uhr_2_001-effect","mode":4}]},"mesh-split_0":{"primitives":[{"attributes":{"NORMAL":"accessor_0","POSITION":"accessor_1"},"material":"Uhr_2-effect","mode":4,"indices":"accessor"}]},"mesh-split_1":{"primitives":[{"attributes":{"NORMAL":"accessor_118","POSITION":"accessor_116"},"indices":"accessor_114","material":"Sec_Zeiger-effect","mode":4}]}},"nodes":{"rootNode":{"children":[],"meshes":["rootNode_mesh_0","mesh-split","mesh-split_0","mesh-split_1"],"matrix":[1,0,0,0,0,1,0,0,0,0,1,0,0,0,0,1]}},"programs":{"program_0":{"attributes":["a_normal","a_position"],"fragmentShader":"input0FS","vertexShader":"input0VS"},"program_2":{"attributes":["a_normal","a_position"],"fragmentShader":"input2FS","vertexShader":"input0VS"}},"scene":"defaultScene","scenes":{"defaultScene":{"nodes":["rootNode"]}},"shaders":{"input0FS":{"type":35632,"uri":"data:text/plain;base64,"},"input0VS":{"type":35633,"uri":"data:text/plain;base64,"},"input2FS":{"type":35632,"uri":"data:text/plain;base64,"}},"skins":{},"techniques":{"technique0":{"attributes":{"a_normal":"normal","a_position":"position"},"parameters":{"ambient":{"type":35666},"diffuse":{"semantic":"_3DTILESDIFFUSE","type":35666},"emission":{"type":35666},"modelViewMatrix":{"semantic":"MODELVIEW","type":35676},"normal":{"semantic":"NORMAL","type":35665},"normalMatrix":{"semantic":"MODELVIEWINVERSETRANSPOSE","type":35675},"position":{"semantic":"POSITION","type":35665},"projectionMatrix":{"semantic":"PROJECTION","type":35676},"shininess":{"type":5126},"specular":{"type":35666}},"program":"program_0","states":{"enable":[2929]},"uniforms":{"u_ambient":"ambient","u_diffuse":"diffuse","u_emission":"emission","u_modelViewMatrix":"modelViewMatrix","u_normalMatrix":"normalMatrix","u_projectionMatrix":"projectionMatrix","u_shininess":"shininess","u_specular":"specular"}},"technique2":{"attributes":{"a_normal":"normal","a_position":"position"},"parameters":{"ambient":{"type":35666},"diffuse":{"semantic":"_3DTILESDIFFUSE","type":35666},"emission":{"type":35666},"modelViewMatrix":{"semantic":"MODELVIEW","type":35676},"normal":{"semantic":"NORMAL","type":35665},"normalMatrix":{"semantic":"MODELVIEWINVERSETRANSPOSE","type":35675},"position":{"semantic":"POSITION","type":35665},"projectionMatrix":{"semantic":"PROJECTION","type":35676},"shininess":{"type":5126},"specular":{"type":35666},"transparency":{"type":5126}},"program":"program_2","states":{"enable":[2929,3042],"functions":{"blendEquationSeparate":[32774,32774],"blendFuncSeparate":[1,771,1,771],"depthMask":[false],"enable":[]}},"uniforms":{"u_ambient":"ambient","u_diffuse":"diffuse","u_emission":"emission","u_modelViewMatrix":"modelViewMatrix","u_normalMatrix":"normalMatrix","u_projectionMatrix":"projectionMatrix","u_shininess":"shininess","u_specular":"specular","u_transparency":"transparency"}}},"cameras":{},"images":{},"samplers":{},"textures":{},"extensionsUsed":[]}
