{
    "asset": {
        "generator": "COLLADA2GLTF",
        "version": "2.0"
    },
    "scenes": [
        {
            "nodes": [
                0
            ]
        }
    ],
    "scene": 0,
    "nodes": [
        {
            "children": [
                6,
                5,
                4,
                3,
                2,
                1
            ],
            "matrix": [
                1.0,
                0.0,
                0.0,
                0.0,
                0.0,
                0.0,
                -1.0,
                0.0,
                0.0,
                1.0,
                0.0,
                0.0,
                0.0,
                0.0,
                0.0,
                1.0
            ],
            "name": "Z_UP"
        },
        {
            "mesh": 0,
            "matrix": [
                0.15577690303325654,
                -0.03776150196790695,
                0.0,
                0.0,
                0.05516193062067032,
                0.227558508515358,
                0.0,
                0.0,
                0.0,
                0.0,
                0.21462370455265049,
                0.0,
                0.6767880916595459,
                1.0945409536361697,
                1.4736809730529786,
                1.0
            ],
            "name": "Gift2_001"
        },
        {
            "mesh": 1,
            "matrix": [
                0.25409889221191409,
                0.0,
                0.0,
                0.0,
                0.0,
                0.25409889221191409,
                0.0,
                0.0,
                0.0,
                0.0,
                0.25409889221191409,
                0.0,
                -0.5386568307876587,
                0.33651331067085268,
                1.4837390184402466,
                1.0
            ],
            "name": "Tree"
        },
        {
            "mesh": 2,
            "matrix": [
                0.31593620777130129,
                0.1058799996972084,
                0.0,
                0.0,
                -0.1058799996972084,
                0.31593620777130129,
                0.0,
                0.0,
                0.0,
                0.0,
                0.23342010378837584,
                0.0,
                0.8017287254333496,
                -0.904952883720398,
                1.975875973701477,
                1.0
            ],
            "name": "Snowman"
        },
        {
            "mesh": 3,
            "matrix": [
                1.0,
                0.0,
                0.0,
                0.0,
                0.0,
                1.0,
                0.0,
                0.0,
                0.0,
                0.0,
                0.7005277276039124,
                0.0,
                0.0,
                0.0,
                0.0,
                1.0
            ],
            "name": "Island"
        },
        {
            "mesh": 4,
            "matrix": [
                0.13752590119838718,
                0.08233466744422913,
                0.0,
                0.0,
                -0.12027429789304732,
                0.20089749991893769,
                0.0,
                0.0,
                0.0,
                0.0,
                0.12374889850616457,
                0.0,
                1.2623039484024048,
                0.8386297821998596,
                1.3849740028381348,
                1.0
            ],
            "name": "Gift2"
        },
        {
            "mesh": 5,
            "matrix": [
                0.1787941008806229,
                0.13032910227775577,
                0.0,
                0.0,
                -0.13032910227775577,
                0.1787941008806229,
                0.0,
                0.0,
                0.0,
                0.0,
                0.2049621045589447,
                0.0,
                1.027292013168335,
                0.2203444093465805,
                1.4489610195159913,
                1.0
            ],
            "name": "Gift1"
        }
    ],
    "meshes": [
        {
            "primitives": [
                {
                    "attributes": {
                        "NORMAL": 1,
                        "POSITION": 2,
                        "TEXCOORD_0": 3
                    },
                    "indices": 0,
                    "mode": 4
                }
            ],
            "name": "Cube.007"
        },
        {
            "primitives": [
                {
                    "attributes": {
                        "NORMAL": 5,
                        "POSITION": 6,
                        "TEXCOORD_0": 7
                    },
                    "indices": 4,
                    "mode": 4
                }
            ],
            "name": "Cylinder.002"
        },
        {
            "primitives": [
                {
                    "attributes": {
                        "NORMAL": 9,
                        "POSITION": 10,
                        "TEXCOORD_0": 11
                    },
                    "indices": 8,
                    "mode": 4
                }
            ],
            "name": "Cylinder.001"
        },
        {
            "primitives": [
                {
                    "attributes": {
                        "NORMAL": 13,
                        "POSITION": 14,
                        "TEXCOORD_0": 15
                    },
                    "indices": 12,
                    "mode": 4
                }
            ],
            "name": "Cylinder"
        },
        {
            "primitives": [
                {
                    "attributes": {
                        "NORMAL": 17,
                        "POSITION": 18,
                        "TEXCOORD_0": 19
                    },
                    "indices": 16,
                    "mode": 4
                }
            ],
            "name": "Cube.003"
        },
        {
            "primitives": [
                {
                    "attributes": {
                        "NORMAL": 21,
                        "POSITION": 22,
                        "TEXCOORD_0": 23
                    },
                    "indices": 20,
                    "mode": 4
                }
            ],
            "name": "Cube.001"
        }
    ],
    "accessors": [
        {
            "bufferView": 0,
            "byteOffset": 0,
            "componentType": 5123,
            "count": 1728,
            "max": [
                1433
            ],
            "min": [
                0
            ],
            "type": "SCALAR"
        },
        {
            "bufferView": 1,
            "byteOffset": 0,
            "componentType": 5126,
            "count": 1434,
            "max": [
                1.0,
                1.0,
                1.0
            ],
            "min": [
                -1.0,
                -1.0,
                -1.0
            ],
            "type": "VEC3"
        },
        {
            "bufferView": 1,
            "byteOffset": 17208,
            "componentType": 5126,
            "count": 1434,
            "max": [
                1.066267013549805,
                1.066267013549805,
                1.4734410047531129
            ],
            "min": [
                -1.066267013549805,
                -1.066267013549805,
                -1.016495943069458
            ],
            "type": "VEC3"
        },
        {
            "bufferView": 2,
            "byteOffset": 0,
            "componentType": 5126,
            "count": 1434,
            "max": [
                0.4887048006057739,
                0.2690674066543579
            ],
            "min": [
                0.08333318680524826,
                0.09593236446380617
            ],
            "type": "VEC2"
        },
        {
            "bufferView": 0,
            "byteOffset": 3456,
            "componentType": 5123,
            "count": 7248,
            "max": [
                7135
            ],
            "min": [
                0
            ],
            "type": "SCALAR"
        },
        {
            "bufferView": 1,
            "byteOffset": 34416,
            "componentType": 5126,
            "count": 7136,
            "max": [
                0.992077112197876,
                0.9638682007789612,
                1.0
            ],
            "min": [
                -0.9920778274536132,
                -0.9638683199882508,
                -1.0
            ],
            "type": "VEC3"
        },
        {
            "bufferView": 1,
            "byteOffset": 120048,
            "componentType": 5126,
            "count": 7136,
            "max": [
                5.798886775970459,
                6.0991530418396,
                18.68453025817871
            ],
            "min": [
                -5.798886775970459,
                -6.16437292098999,
                -0.9455276131629944
            ],
            "type": "VEC3"
        },
        {
            "bufferView": 2,
            "byteOffset": 11472,
            "componentType": 5126,
            "count": 7136,
            "max": [
                0.9779751896858216,
                0.8494632840156555
            ],
            "min": [
                0.07268714159727097,
                0.10659337043762209
            ],
            "type": "VEC2"
        },
        {
            "bufferView": 0,
            "byteOffset": 17952,
            "componentType": 5123,
            "count": 3996,
            "max": [
                3851
            ],
            "min": [
                0
            ],
            "type": "SCALAR"
        },
        {
            "bufferView": 1,
            "byteOffset": 205680,
            "componentType": 5126,
            "count": 3852,
            "max": [
                1.0,
                0.97470623254776,
                1.0
            ],
            "min": [
                -1.0,
                -0.9747061133384704,
                -1.0
            ],
            "type": "VEC3"
        },
        {
            "bufferView": 1,
            "byteOffset": 251904,
            "componentType": 5126,
            "count": 3852,
            "max": [
                1.4002039432525638,
                2.5603079795837404,
                3.5257530212402345
            ],
            "min": [
                -1.389775037765503,
                -1.2191970348358157,
                -3.240648031234741
            ],
            "type": "VEC3"
        },
        {
            "bufferView": 2,
            "byteOffset": 68560,
            "componentType": 5126,
            "count": 3852,
            "max": [
                1.0,
                1.0
            ],
            "min": [
                0.0,
                0.0
            ],
            "type": "VEC2"
        },
        {
            "bufferView": 0,
            "byteOffset": 25944,
            "componentType": 5123,
            "count": 564,
            "max": [
                531
            ],
            "min": [
                0
            ],
            "type": "SCALAR"
        },
        {
            "bufferView": 1,
            "byteOffset": 298128,
            "componentType": 5126,
            "count": 532,
            "max": [
                0.9870482087135316,
                0.9835106134414672,
                1.0
            ],
            "min": [
                -0.9843825101852416,
                -0.993877112865448,
                -1.0
            ],
            "type": "VEC3"
        },
        {
            "bufferView": 1,
            "byteOffset": 304512,
            "componentType": 5126,
            "count": 532,
            "max": [
                2.2387349605560304,
                2.2387349605560304,
                1.7938510179519654
            ],
            "min": [
                -2.2387349605560304,
                -2.2387349605560304,
                -2.776830911636353
            ],
            "type": "VEC3"
        },
        {
            "bufferView": 2,
            "byteOffset": 99376,
            "componentType": 5126,
            "count": 532,
            "max": [
                0.806566596031189,
                0.890535295009613
            ],
            "min": [
                0.3463298976421356,
                0.08508026599884033
            ],
            "type": "VEC2"
        },
        {
            "bufferView": 0,
            "byteOffset": 27072,
            "componentType": 5123,
            "count": 1728,
            "max": [
                1433
            ],
            "min": [
                0
            ],
            "type": "SCALAR"
        },
        {
            "bufferView": 1,
            "byteOffset": 310896,
            "componentType": 5126,
            "count": 1434,
            "max": [
                1.0,
                1.0,
                1.0
            ],
            "min": [
                -1.0,
                -1.0,
                -1.0
            ],
            "type": "VEC3"
        },
        {
            "bufferView": 1,
            "byteOffset": 328104,
            "componentType": 5126,
            "count": 1434,
            "max": [
                1.066267013549805,
                1.066267013549805,
                1.4734410047531129
            ],
            "min": [
                -1.066267013549805,
                -1.066267013549805,
                -1.016495943069458
            ],
            "type": "VEC3"
        },
        {
            "bufferView": 2,
            "byteOffset": 103632,
            "componentType": 5126,
            "count": 1434,
            "max": [
                0.4836651086807251,
                0.2690674066543579
            ],
            "min": [
                0.08333318680524826,
                0.09593236446380617
            ],
            "type": "VEC2"
        },
        {
            "bufferView": 0,
            "byteOffset": 30528,
            "componentType": 5123,
            "count": 1728,
            "max": [
                1433
            ],
            "min": [
                0
            ],
            "type": "SCALAR"
        },
        {
            "bufferView": 1,
            "byteOffset": 345312,
            "componentType": 5126,
            "count": 1434,
            "max": [
                1.0,
                1.0,
                1.0
            ],
            "min": [
                -1.0,
                -1.0,
                -1.0
            ],
            "type": "VEC3"
        },
        {
            "bufferView": 1,
            "byteOffset": 362520,
            "componentType": 5126,
            "count": 1434,
            "max": [
                1.066267013549805,
                1.066267013549805,
                1.4734410047531129
            ],
            "min": [
                -1.066267013549805,
                -1.066267013549805,
                -1.016495943069458
            ],
            "type": "VEC3"
        },
        {
            "bufferView": 2,
            "byteOffset": 115104,
            "componentType": 5126,
            "count": 1434,
            "max": [
                0.7386149168014526,
                0.2497655153274536
            ],
            "min": [
                0.09034252166748048,
                0.11302107572555542
            ],
            "type": "VEC2"
        }
    ],
    "bufferViews": [
        {
            "buffer": 0,
            "byteOffset": 506304,
            "byteLength": 33984,
            "target": 34963
        },
        {
            "buffer": 0,
            "byteOffset": 0,
            "byteLength": 379728,
            "byteStride": 12,
            "target": 34962
        },
        {
            "buffer": 0,
            "byteOffset": 379728,
            "byteLength": 126576,
            "byteStride": 8,
            "target": 34962
        }
    ],
    "buffers": [
        {
            "byteLength": 540288,
            "uri": "data:application/octet-stream;base64,"
        }
    ]
}
